<mxfile host="app.diagrams.net" agent="Mozilla/5.0 (Windows NT 10.0; Win64; x64) AppleWebKit/537.36 (KHTML, like Gecko) Chrome/131.0.0.0 Safari/537.36" version="25.0.1">
  <diagram name="第 1 页" id="N-YtlmppH1VmHZnKiGfv">
    <mxGraphModel dx="1562" dy="853" grid="1" gridSize="10" guides="1" tooltips="1" connect="1" arrows="1" fold="1" page="1" pageScale="1" pageWidth="1600" pageHeight="900" math="0" shadow="0">
      <root>
        <mxCell id="0" />
        <mxCell id="1" parent="0" />
        <mxCell id="362nYLkJrgbabimkj0mE-2" value="&lt;font style=&quot;font-size: 16px;&quot; face=&quot;Times New Roman&quot;&gt;P&lt;/font&gt;" style="rounded=0;whiteSpace=wrap;html=1;" vertex="1" parent="1">
          <mxGeometry x="280" y="210" width="70" height="70" as="geometry" />
        </mxCell>
        <mxCell id="362nYLkJrgbabimkj0mE-4" value="&lt;font style=&quot;font-size: 16px;&quot; face=&quot;Times New Roman&quot;&gt;I&lt;/font&gt;" style="rounded=0;whiteSpace=wrap;html=1;" vertex="1" parent="1">
          <mxGeometry x="350" y="210" width="40" height="70" as="geometry" />
        </mxCell>
        <mxCell id="362nYLkJrgbabimkj0mE-5" value="&lt;font style=&quot;font-size: 16px;&quot; face=&quot;Times New Roman&quot;&gt;N&lt;/font&gt;" style="rounded=0;whiteSpace=wrap;html=1;" vertex="1" parent="1">
          <mxGeometry x="390" y="210" width="120" height="70" as="geometry" />
        </mxCell>
        <mxCell id="362nYLkJrgbabimkj0mE-6" value="" style="endArrow=none;html=1;rounded=0;" edge="1" parent="1">
          <mxGeometry width="50" height="50" relative="1" as="geometry">
            <mxPoint x="220" y="244.5" as="sourcePoint" />
            <mxPoint x="280" y="244.5" as="targetPoint" />
          </mxGeometry>
        </mxCell>
        <mxCell id="362nYLkJrgbabimkj0mE-7" value="" style="ellipse;whiteSpace=wrap;html=1;aspect=fixed;" vertex="1" parent="1">
          <mxGeometry x="210" y="240" width="10" height="10" as="geometry" />
        </mxCell>
        <mxCell id="362nYLkJrgbabimkj0mE-8" value="" style="endArrow=none;html=1;rounded=0;" edge="1" parent="1" source="362nYLkJrgbabimkj0mE-9">
          <mxGeometry width="50" height="50" relative="1" as="geometry">
            <mxPoint x="510" y="244.5" as="sourcePoint" />
            <mxPoint x="570" y="244.5" as="targetPoint" />
          </mxGeometry>
        </mxCell>
        <mxCell id="362nYLkJrgbabimkj0mE-10" value="" style="endArrow=none;html=1;rounded=0;" edge="1" parent="1" target="362nYLkJrgbabimkj0mE-9">
          <mxGeometry width="50" height="50" relative="1" as="geometry">
            <mxPoint x="510" y="244.5" as="sourcePoint" />
            <mxPoint x="570" y="244.5" as="targetPoint" />
          </mxGeometry>
        </mxCell>
        <mxCell id="362nYLkJrgbabimkj0mE-9" value="" style="ellipse;whiteSpace=wrap;html=1;aspect=fixed;" vertex="1" parent="1">
          <mxGeometry x="570" y="240" width="10" height="10" as="geometry" />
        </mxCell>
      </root>
    </mxGraphModel>
  </diagram>
</mxfile>
